<svg width="39" height="36" viewBox="0 0 39 36" fill="none" xmlns="http://www.w3.org/2000/svg">
<path d="M17.4563 35.5C15.0354 35.5 12.7604 35.0403 10.6312 34.121C8.50208 33.2028 6.65 31.9563 5.075 30.3813C3.5 28.8063 2.26042 26.9542 1.35625 24.825C0.452084 22.6958 0 20.4208 0 18C0 15.5792 0.459667 13.3042 1.379 11.175C2.29717 9.04583 3.54375 7.19375 5.11875 5.61875C6.69375 4.04375 8.54583 2.79658 10.675 1.87725C12.8042 0.959083 15.0792 0.5 17.5 0.5C18.9 0.5 20.293 0.675 21.679 1.025C23.0638 1.375 24.4125 1.88542 25.725 2.55625C26.1625 2.78958 26.4326 3.14658 26.5352 3.62725C26.6367 4.10908 26.5271 4.55417 26.2063 4.9625C25.9146 5.34167 25.5354 5.58958 25.0688 5.70625C24.6021 5.82292 24.1646 5.76458 23.7563 5.53125C22.7646 5.03542 21.7437 4.65625 20.6938 4.39375C19.6437 4.13125 18.5792 4 17.5 4C13.6208 4 10.318 5.36325 7.5915 8.08975C4.86383 10.8174 3.5 14.1208 3.5 18C3.5 21.8792 4.86383 25.1826 7.5915 27.9102C10.318 30.6367 13.6208 32 17.5 32C18.3458 32 19.1479 31.9341 19.9062 31.8022C20.6646 31.6716 21.3937 31.475 22.0938 31.2125C22.4729 31.0667 22.8451 31.0597 23.2102 31.1915C23.5742 31.3222 23.9021 31.5479 24.1938 31.8687C24.5729 32.3062 24.6826 32.7951 24.5228 33.3353C24.3618 33.8743 23.9896 34.2604 23.4062 34.4937C22.5021 34.8146 21.5542 35.0625 20.5625 35.2375C19.5708 35.4125 18.5354 35.5 17.4563 35.5ZM13.825 24.825L8.79375 19.7937C8.47292 19.4729 8.32008 19.0716 8.33525 18.5898C8.34925 18.1091 8.51667 17.7083 8.8375 17.3875C9.15833 17.0667 9.56667 16.9062 10.0625 16.9062C10.5583 16.9062 10.9667 17.0667 11.2875 17.3875L15.05 21.15L31.3687 4.7875C31.6896 4.46667 32.0909 4.31325 32.5728 4.32725C33.0534 4.34242 33.4542 4.51042 33.775 4.83125C34.0958 5.15208 34.2563 5.56042 34.2563 6.05625C34.2563 6.55208 34.0958 6.96042 33.775 7.28125L16.275 24.825C15.9542 25.1458 15.5458 25.3062 15.05 25.3062C14.5542 25.3062 14.1458 25.1458 13.825 24.825ZM31.5 32C31.0042 32 30.5888 31.832 30.254 31.496C29.918 31.1612 29.75 30.7458 29.75 30.25V26.75H26.25C25.7542 26.75 25.3388 26.582 25.004 26.246C24.668 25.9112 24.5 25.4958 24.5 25C24.5 24.5042 24.668 24.0882 25.004 23.7522C25.3388 23.4174 25.7542 23.25 26.25 23.25H29.75V19.75C29.75 19.2542 29.918 18.8382 30.254 18.5022C30.5888 18.1674 31.0042 18 31.5 18C31.9958 18 32.4112 18.1674 32.746 18.5022C33.082 18.8382 33.25 19.2542 33.25 19.75V23.25H36.75C37.2458 23.25 37.6612 23.4174 37.996 23.7522C38.332 24.0882 38.5 24.5042 38.5 25C38.5 25.4958 38.332 25.9112 37.996 26.246C37.6612 26.582 37.2458 26.75 36.75 26.75H33.25V30.25C33.25 30.7458 33.082 31.1612 32.746 31.496C32.4112 31.832 31.9958 32 31.5 32Z" fill="#5F33E1"/>
</svg>
