<svg width="32" height="32" viewBox="0 0 32 32" fill="none" xmlns="http://www.w3.org/2000/svg">
<g clip-path="url(#clip0_1_92)">
<path d="M13.3333 15.9999C16.2789 15.9999 18.6667 13.6121 18.6667 10.6666C18.6667 7.72107 16.2789 5.33325 13.3333 5.33325C10.3878 5.33325 8 7.72107 8 10.6666C8 13.6121 10.3878 15.9999 13.3333 15.9999Z" fill="#F478B8"/>
<path d="M14.2267 17.3599C13.9334 17.3466 13.6401 17.3333 13.3334 17.3333C10.1067 17.3333 7.09341 18.2266 4.52008 19.7599C3.34675 20.4533 2.66675 21.7599 2.66675 23.1333V26.6666H15.0134C13.9601 25.1599 13.3334 23.3199 13.3334 21.3333C13.3334 19.9066 13.6667 18.5733 14.2267 17.3599Z" fill="#F478B8"/>
<path d="M27.6667 21.3333C27.6667 21.04 27.6267 20.7733 27.5867 20.4933L29.1067 19.1466L27.7734 16.84L25.84 17.4933C25.4134 17.1333 24.9334 16.8533 24.4 16.6533L24 14.6666H21.3334L20.9334 16.6533C20.4 16.8533 19.92 17.1333 19.4934 17.4933L17.56 16.84L16.2267 19.1466L17.7467 20.4933C17.7067 20.7733 17.6667 21.04 17.6667 21.3333C17.6667 21.6266 17.7067 21.8933 17.7467 22.1733L16.2267 23.52L17.56 25.8266L19.4934 25.1733C19.92 25.5333 20.4 25.8133 20.9334 26.0133L21.3334 28H24L24.4 26.0133C24.9334 25.8133 25.4134 25.5333 25.84 25.1733L27.7734 25.8266L29.1067 23.52L27.5867 22.1733C27.6267 21.8933 27.6667 21.6266 27.6667 21.3333ZM22.6667 24C21.2 24 20 22.8 20 21.3333C20 19.8666 21.2 18.6666 22.6667 18.6666C24.1334 18.6666 25.3334 19.8666 25.3334 21.3333C25.3334 22.8 24.1334 24 22.6667 24Z" fill="#F478B8"/>
</g>
<defs>
<clipPath id="clip0_1_92">
<rect width="32" height="32" fill="white"/>
</clipPath>
</defs>
</svg>
