<svg width="32" height="32" viewBox="0 0 32 32" fill="none" xmlns="http://www.w3.org/2000/svg">
<g clip-path="url(#clip0_1_90)">
<path d="M5.99996 16C7.84091 16 9.33329 14.5076 9.33329 12.6666C9.33329 10.8257 7.84091 9.33331 5.99996 9.33331C4.15901 9.33331 2.66663 10.8257 2.66663 12.6666C2.66663 14.5076 4.15901 16 5.99996 16Z" fill="#FFD332"/>
<path d="M12 10.6667C13.8409 10.6667 15.3333 9.17428 15.3333 7.33333C15.3333 5.49238 13.8409 4 12 4C10.159 4 8.66663 5.49238 8.66663 7.33333C8.66663 9.17428 10.159 10.6667 12 10.6667Z" fill="#FFD332"/>
<path d="M20 10.6667C21.8409 10.6667 23.3333 9.17428 23.3333 7.33333C23.3333 5.49238 21.8409 4 20 4C18.159 4 16.6666 5.49238 16.6666 7.33333C16.6666 9.17428 18.159 10.6667 20 10.6667Z" fill="#FFD332"/>
<path d="M26 16C27.8409 16 29.3333 14.5076 29.3333 12.6666C29.3333 10.8257 27.8409 9.33331 26 9.33331C24.159 9.33331 22.6666 10.8257 22.6666 12.6666C22.6666 14.5076 24.159 16 26 16Z" fill="#FFD332"/>
<path d="M23.12 19.8133C21.96 18.4533 20.9867 17.2933 19.8134 15.9333C19.2 15.2133 18.4134 14.4933 17.48 14.1733C17.3334 14.12 17.1867 14.08 17.04 14.0533C16.7067 14 16.3467 14 16 14C15.6534 14 15.2934 14 14.9467 14.0667C14.8 14.0933 14.6534 14.1333 14.5067 14.1867C13.5734 14.5067 12.8 15.2267 12.1734 15.9467C11.0134 17.3067 10.04 18.4667 8.86669 19.8267C7.12003 21.5733 4.97336 23.5067 5.37336 26.2133C5.76003 27.5733 6.73336 28.92 8.48003 29.3067C9.45336 29.5067 12.56 28.72 15.8667 28.72H16.1067C19.4134 28.72 22.52 29.4933 23.4934 29.3067C25.24 28.92 26.2134 27.56 26.6 26.2133C27.0134 23.4933 24.8667 21.56 23.12 19.8133Z" fill="#FFD332"/>
</g>
<defs>
<clipPath id="clip0_1_90">
<rect width="32" height="32" fill="white"/>
</clipPath>
</defs>
</svg>
