<svg width="32" height="32" viewBox="0 0 32 32" fill="none" xmlns="http://www.w3.org/2000/svg">
<g clip-path="url(#clip0_1_88)">
<path d="M28 6.66667C26.52 6.2 24.8934 6 23.3334 6C20.7334 6 17.9334 6.53333 16 8C14.0667 6.53333 11.2667 6 8.66671 6C6.06671 6 3.26671 6.53333 1.33337 8V27.5333C1.33337 27.8667 1.66671 28.2 2.00004 28.2C2.13337 28.2 2.20004 28.1333 2.33337 28.1333C4.13337 27.2667 6.73337 26.6667 8.66671 26.6667C11.2667 26.6667 14.0667 27.2 16 28.6667C17.8 27.5333 21.0667 26.6667 23.3334 26.6667C25.5334 26.6667 27.8 27.0667 29.6667 28.0667C29.8 28.1333 29.8667 28.1333 30 28.1333C30.3334 28.1333 30.6667 27.8 30.6667 27.4667V8C29.8667 7.4 29 7 28 6.66667ZM28 24.6667C26.5334 24.2 24.9334 24 23.3334 24C21.0667 24 17.8 24.8667 16 26V10.6667C17.8 9.53333 21.0667 8.66667 23.3334 8.66667C24.9334 8.66667 26.5334 8.86667 28 9.33333V24.6667Z" fill="#0087FF"/>
<path d="M23.3334 14C24.5067 14 25.64 14.12 26.6667 14.3467V12.32C25.6134 12.12 24.48 12 23.3334 12C21.0667 12 19.0134 12.3867 17.3334 13.1067V15.32C18.84 14.4667 20.9334 14 23.3334 14Z" fill="#0087FF"/>
<path d="M17.3334 16.6534V18.8667C18.84 18.0134 20.9334 17.5467 23.3334 17.5467C24.5067 17.5467 25.64 17.6667 26.6667 17.8934V15.8667C25.6134 15.6667 24.48 15.5467 23.3334 15.5467C21.0667 15.5467 19.0134 15.9467 17.3334 16.6534Z" fill="#0087FF"/>
<path d="M23.3334 19.1066C21.0667 19.1066 19.0134 19.4933 17.3334 20.2133V22.4266C18.84 21.5733 20.9334 21.1066 23.3334 21.1066C24.5067 21.1066 25.64 21.2266 26.6667 21.4533V19.4266C25.6134 19.2133 24.48 19.1066 23.3334 19.1066Z" fill="#0087FF"/>
</g>
<defs>
<clipPath id="clip0_1_88">
<rect width="32" height="32" fill="white"/>
</clipPath>
</defs>
</svg>
