<svg width="32" height="32" viewBox="0 0 32 32" fill="none" xmlns="http://www.w3.org/2000/svg">
<g clip-path="url(#clip0_1_89)">
<path d="M9.33325 24C7.86658 24 6.67992 25.2 6.67992 26.6667C6.67992 28.1334 7.86658 29.3334 9.33325 29.3334C10.7999 29.3334 11.9999 28.1334 11.9999 26.6667C11.9999 25.2 10.7999 24 9.33325 24ZM1.33325 2.66669V5.33335H3.99992L8.79992 15.4534L6.99992 18.72C6.78658 19.0934 6.66658 19.5334 6.66658 20C6.66658 21.4667 7.86658 22.6667 9.33325 22.6667H25.3333V20H9.89325C9.70658 20 9.55992 19.8534 9.55992 19.6667L9.59992 19.5067L10.7999 17.3334H20.7333C21.7333 17.3334 22.6132 16.7867 23.0666 15.96L27.8399 7.30669C27.9466 7.12002 27.9999 6.89335 27.9999 6.66669C27.9999 5.93335 27.3999 5.33335 26.6666 5.33335H6.94659L5.69325 2.66669H1.33325ZM22.6666 24C21.1999 24 20.0133 25.2 20.0133 26.6667C20.0133 28.1334 21.1999 29.3334 22.6666 29.3334C24.1333 29.3334 25.3333 28.1334 25.3333 26.6667C25.3333 25.2 24.1333 24 22.6666 24Z" fill="#FF9142"/>
</g>
<defs>
<clipPath id="clip0_1_89">
<rect width="32" height="32" fill="white"/>
</clipPath>
</defs>
</svg>
